<svg xmlns="http://www.w3.org/2000/svg" xmlns:xlink="http://www.w3.org/1999/xlink" width="1728" zoomAndPan="magnify" viewBox="0 0 1296 1727.999927" height="2304" preserveAspectRatio="xMidYMid meet" version="1.0"><defs><clipPath id="0167cb5c1a"><path d="M 758.546875 891.757812 L 915 891.757812 L 915 1160.257812 L 758.546875 1160.257812 Z M 758.546875 891.757812 " clip-rule="nonzero"/></clipPath><clipPath id="9d8758411c"><path d="M 902.050781 917.835938 L 1003.300781 917.835938 L 1003.300781 1160.085938 L 902.050781 1160.085938 Z M 902.050781 917.835938 " clip-rule="nonzero"/></clipPath><clipPath id="8b9f1463f1"><path d="M 524.851562 693.300781 L 913.351562 693.300781 L 913.351562 867 L 524.851562 867 Z M 524.851562 693.300781 " clip-rule="nonzero"/></clipPath><clipPath id="ba8083b99a"><path d="M 240.148438 441 L 758.398438 441 L 758.398438 945.652344 L 240.148438 945.652344 Z M 240.148438 441 " clip-rule="nonzero"/></clipPath></defs><g clip-path="url(#0167cb5c1a)"><path fill="#004aad" d="M 847.894531 947.875 C 846.769531 948.128906 845.671875 948.039062 844.601562 947.601562 C 843.984375 946.898438 843.628906 946.078125 843.53125 945.148438 C 848.792969 940.96875 851.144531 934.257812 850.585938 925.011719 C 850.027344 915.769531 846.9375 908.308594 841.320312 902.632812 C 839.507812 900.636719 837.414062 899.003906 835.042969 897.730469 C 832.609375 896.617188 830.0625 895.980469 827.390625 895.820312 C 818.507812 895.097656 810.699219 898.085938 803.964844 904.785156 C 797.226562 911.480469 791.789062 919.824219 787.648438 929.820312 C 785.449219 935.515625 783.636719 941.332031 782.210938 947.269531 C 780.582031 953.164062 779.488281 959.152344 778.925781 965.238281 C 778.34375 969.480469 778.066406 973.742188 778.085938 978.023438 C 778.085938 982.769531 778.265625 987.59375 778.625 992.492188 C 779.359375 1000.789062 781.09375 1008.871094 783.820312 1016.738281 C 786.527344 1023.996094 790.433594 1027.71875 795.535156 1027.917969 C 799.878906 1027.917969 804.144531 1024.46875 808.328125 1017.578125 C 812.511719 1010.683594 816.078125 1001.890625 819.027344 991.199219 C 820.722656 985.109375 821.996094 978.933594 822.851562 972.671875 C 823.761719 965.988281 824.300781 959.277344 824.46875 952.53125 C 824.75 951.078125 825.289062 949.722656 826.078125 948.46875 C 826.769531 947.402344 827.6875 946.582031 828.824219 946.015625 C 831.734375 944.746094 835.003906 945.386719 838.628906 947.933594 C 842.253906 950.480469 843.988281 953.109375 843.832031 955.816406 C 843.46875 961.636719 842.191406 973.808594 840.003906 992.328125 C 838.371094 1006.476562 836.738281 1021.457031 835.101562 1037.269531 C 841.078125 1033.441406 847.449219 1029.078125 854.207031 1024.183594 C 863.097656 1018.007812 872.078125 1009.738281 881.15625 999.382812 C 886.433594 993.480469 891.253906 987.222656 895.621094 980.617188 C 900.597656 972.980469 905.140625 965.089844 909.253906 956.957031 C 910.015625 957.710938 910.929688 958.066406 912 958.027344 C 913.0625 958.199219 914.058594 958.558594 914.984375 959.101562 C 911.074219 967.835938 906.433594 976.164062 901.058594 984.085938 C 896.375 991.179688 891.195312 997.894531 885.523438 1004.226562 C 875.519531 1015.101562 865.894531 1023.546875 856.65625 1029.5625 C 847.414062 1035.578125 840.34375 1039.382812 835.4375 1040.972656 C 842.847656 1046.46875 848.546875 1052.746094 852.53125 1059.800781 C 856.3125 1066.914062 858.859375 1074.441406 860.183594 1082.386719 C 861.1875 1088.234375 861.550781 1094.121094 861.28125 1100.042969 C 861.007812 1105.96875 860.101562 1111.796875 858.566406 1117.527344 C 855.65625 1129.160156 851.851562 1138.683594 847.152344 1146.089844 C 845.027344 1149.761719 842.394531 1153.03125 839.261719 1155.890625 C 836.554688 1158.242188 834.007812 1159.617188 831.609375 1160.011719 L 830.742188 1160.011719 C 825.644531 1160.175781 822.273438 1153.722656 820.636719 1140.652344 C 819 1127.582031 818.1875 1111.785156 818.191406 1093.261719 C 818.34375 1085.460938 818.621094 1077.574219 819.027344 1069.601562 C 819.433594 1061.632812 819.792969 1053.824219 820.101562 1046.175781 C 821.023438 1032.195312 821.9375 1019.949219 822.851562 1009.4375 C 823.761719 998.921875 824.039062 992.570312 823.6875 990.375 C 823.332031 992.566406 822.15625 996.46875 820.160156 1002.085938 C 817.9375 1008.152344 815.03125 1013.871094 811.4375 1019.238281 C 809.308594 1022.585938 806.757812 1025.574219 803.785156 1028.203125 C 801.078125 1030.753906 798.167969 1031.929688 795.054688 1031.730469 C 785.0625 1031.570312 777.351562 1027.84375 771.929688 1020.554688 C 769.179688 1016.777344 766.863281 1012.753906 764.976562 1008.480469 C 763.09375 1004.203125 761.683594 999.78125 760.75 995.203125 C 759.65625 989.898438 759.015625 984.539062 758.839844 979.125 L 758.839844 974.222656 C 758.839844 970.597656 758.941406 967.152344 759.140625 963.886719 C 761.332031 942.453125 768.679688 924.664062 781.1875 910.523438 C 792.257812 898.011719 805.785156 891.757812 821.777344 891.757812 C 823.785156 891.757812 825.777344 891.9375 827.753906 892.292969 C 829.988281 892.402344 832.167969 892.800781 834.296875 893.488281 C 836.425781 894.179688 838.429688 895.132812 840.304688 896.355469 C 843.910156 898.667969 846.816406 901.65625 849.027344 905.320312 C 851.210938 908.628906 852.839844 912.191406 853.910156 916.007812 C 854.984375 919.824219 855.445312 923.710938 855.304688 927.671875 C 855.140625 936.035156 852.671875 942.769531 847.894531 947.875 Z M 833.667969 1051.671875 C 832.75 1060.753906 831.9375 1069.738281 831.222656 1078.625 C 830.503906 1087.511719 829.867188 1096.035156 829.304688 1104.195312 C 828.390625 1118.894531 828.035156 1131.140625 828.230469 1140.9375 C 828.425781 1150.734375 829.792969 1155.558594 832.332031 1155.414062 C 835.597656 1155.050781 838.964844 1151.148438 842.429688 1143.699219 C 845.890625 1136.253906 848.339844 1127.171875 849.777344 1116.453125 C 850.511719 1110.578125 850.867188 1104.679688 850.851562 1098.757812 C 851.039062 1092.535156 850.582031 1086.363281 849.476562 1080.234375 C 848.082031 1072.753906 845.726562 1065.582031 842.421875 1058.726562 C 840.222656 1054.132812 837.417969 1049.949219 834 1046.175781 C 833.96875 1048.027344 833.84375 1049.820312 833.667969 1051.671875 Z M 833.667969 1051.671875 " fill-opacity="1" fill-rule="nonzero"/></g><g clip-path="url(#9d8758411c)"><path fill="#004aad" d="M 912.5 1006.621094 C 914.316406 1001.808594 917.738281 999.398438 922.769531 999.394531 L 924.289062 999.394531 C 929.914062 999.984375 932.234375 1003.40625 931.253906 1009.652344 C 929.445312 1018.519531 927.527344 1029.097656 925.496094 1041.375 C 923.464844 1053.65625 921.746094 1066.128906 920.339844 1078.800781 C 918.105469 1097.710938 917.007812 1114.824219 917.042969 1130.148438 C 917.078125 1145.46875 919.695312 1153.71875 924.894531 1154.898438 C 930.152344 1156.296875 935.699219 1155.289062 941.53125 1151.867188 C 947.363281 1148.449219 953.109375 1143.617188 958.765625 1137.367188 C 967.621094 1127.777344 975.269531 1117.308594 981.714844 1105.960938 C 988.351562 1094.097656 992.980469 1084.640625 995.597656 1077.597656 C 996.875 1077.167969 998.183594 1076.953125 999.527344 1076.953125 C 1000.773438 1076.9375 1001.980469 1077.152344 1003.144531 1077.597656 C 1000.910156 1082.828125 998.1875 1088.757812 994.972656 1095.394531 C 991.679688 1102.378906 987.960938 1109.132812 983.808594 1115.648438 C 976.097656 1127.929688 966.929688 1139.007812 956.304688 1148.882812 C 948.230469 1156.347656 939.96875 1160.0625 931.519531 1160.027344 C 929.074219 1160.03125 926.664062 1159.734375 924.289062 1159.140625 C 922.40625 1158.652344 920.636719 1157.886719 918.988281 1156.851562 C 917.339844 1155.816406 915.886719 1154.554688 914.625 1153.070312 C 911.769531 1149.628906 909.570312 1145.808594 908.027344 1141.609375 C 904.964844 1133.164062 903.136719 1122.589844 902.546875 1109.886719 C 902.335938 1106.050781 902.230469 1102.023438 902.230469 1097.800781 C 902.230469 1088.941406 902.632812 1079.777344 903.433594 1070.316406 C 904.445312 1059.050781 905.753906 1047.894531 907.363281 1036.851562 C 908.976562 1025.808594 910.6875 1015.730469 912.5 1006.621094 Z M 944.148438 937.300781 C 943.132812 941.351562 941.125 944.175781 938.121094 945.78125 C 935.890625 947.179688 933.777344 947.789062 931.78125 947.609375 C 930.757812 947.609375 929.746094 947.507812 928.742188 947.300781 C 925.699219 946.5 923.484375 944.492188 922.085938 941.277344 C 921.285156 939.027344 920.894531 936.707031 920.914062 934.320312 C 920.917969 933.105469 921.023438 931.898438 921.230469 930.703125 C 921.550781 928.859375 922.152344 927.113281 923.03125 925.464844 C 923.914062 923.8125 925.03125 922.339844 926.382812 921.046875 C 927.207031 920.078125 928.195312 919.328125 929.347656 918.789062 C 930.503906 918.253906 931.714844 917.988281 932.988281 917.984375 C 934.03125 917.800781 935.046875 917.90625 936.027344 918.300781 C 939.660156 919.320312 942.171875 921.730469 943.574219 925.523438 C 944.375 927.773438 944.769531 930.09375 944.753906 932.484375 C 944.726562 934.097656 944.515625 935.6875 944.109375 937.246094 Z M 944.148438 937.300781 " fill-opacity="1" fill-rule="nonzero"/></g><g clip-path="url(#8b9f1463f1)"><path fill="#004aad" d="M 894.550781 761.296875 L 696.40625 761.296875 C 687.785156 722.527344 653.097656 693.425781 611.683594 693.425781 C 563.804688 693.425781 524.851562 732.285156 524.851562 780.050781 C 524.851562 827.8125 563.804688 866.671875 611.683594 866.671875 C 653.097656 866.671875 687.785156 837.570312 696.40625 798.800781 L 802.066406 798.800781 L 802.066406 842.558594 C 802.066406 852.921875 810.484375 861.3125 820.863281 861.3125 C 831.242188 861.3125 839.664062 852.921875 839.664062 842.558594 L 839.664062 798.800781 L 875.753906 798.800781 L 875.753906 842.558594 C 875.753906 852.921875 884.171875 861.3125 894.550781 861.3125 C 904.929688 861.3125 913.351562 852.921875 913.351562 842.558594 L 913.351562 780.050781 C 913.351562 769.6875 904.929688 761.296875 894.550781 761.296875 Z M 611.683594 829.167969 C 584.539062 829.167969 562.445312 807.136719 562.445312 780.050781 C 562.445312 752.960938 584.539062 730.929688 611.683594 730.929688 C 638.828125 730.929688 660.917969 752.960938 660.917969 780.050781 C 660.917969 807.136719 638.828125 829.167969 611.683594 829.167969 Z M 611.683594 829.167969 " fill-opacity="1" fill-rule="nonzero"/></g><g clip-path="url(#ba8083b99a)"><path fill="#004aad" d="M 757.910156 879.371094 C 757.039062 879.546875 756.132812 879.582031 755.292969 879.929688 C 753.027344 880.835938 750.796875 881.8125 748.597656 882.824219 C 738.65625 887.429688 730.324219 894.269531 722.441406 901.699219 C 715.605469 908.152344 707.964844 913.28125 699.035156 916.382812 C 694.605469 917.917969 690.246094 919.664062 685.785156 921.09375 C 673.4375 925.105469 660.777344 927.722656 647.800781 928.386719 C 629.457031 929.328125 611.386719 927.199219 593.773438 921.964844 C 569.046875 914.640625 545.816406 903.894531 524.472656 889.523438 C 504.941406 876.335938 485.96875 862.3125 466.820312 848.535156 C 451.230469 837.300781 436.023438 825.507812 419.527344 815.566406 C 417.886719 814.589844 416.28125 813.613281 414.574219 812.566406 C 414.921875 811.871094 415.128906 811.382812 415.445312 810.859375 C 429.324219 786.613281 442.023438 761.738281 454.578125 736.796875 C 470.585938 704.878906 486.492188 672.921875 502.394531 640.933594 C 502.953125 639.78125 503.652344 639.363281 504.941406 639.363281 C 513.589844 639.292969 522.242188 639.222656 530.890625 638.945312 C 541.355469 638.628906 551.675781 637.164062 561.933594 635.246094 C 572.464844 633.257812 582.859375 630.574219 593.042969 627.292969 C 617.421875 619.515625 640.269531 608.421875 661.925781 594.886719 C 681.355469 582.746094 699.421875 568.894531 714.3125 551.242188 C 723.765625 540.046875 731.507812 527.835938 735.449219 513.570312 C 740.019531 497.066406 739.214844 480.917969 730.84375 465.742188 C 721.988281 449.765625 708.3125 441.460938 689.96875 441.113281 C 679.644531 440.902344 669.773438 443.171875 660.21875 446.660156 C 633.363281 456.390625 609.296875 471.007812 587.707031 489.601562 C 566.746094 507.636719 549.203125 528.707031 533.609375 551.453125 C 519.242188 572.417969 506.511719 594.328125 494.476562 616.6875 C 493.710938 618.082031 492.875 618.433594 491.445312 618.152344 C 486.457031 617.140625 481.398438 616.304688 476.445312 615.117188 C 462.355469 611.734375 448.265625 608.28125 434.207031 604.6875 C 414.363281 599.628906 394.484375 594.675781 373.90625 593.386719 C 363.441406 592.722656 353.011719 593.140625 342.621094 594.746094 C 331.25 596.488281 320.160156 599.523438 309.347656 603.5 C 297.941406 607.6875 286.535156 611.839844 276.074219 618.082031 C 272.097656 620.421875 268.433594 623.210938 264.703125 625.828125 C 264.179688 626.210938 263.867188 626.910156 263.445312 627.46875 C 263.550781 627.675781 263.691406 627.851562 263.796875 628.0625 C 265.050781 627.78125 266.339844 627.640625 267.527344 627.1875 C 274.433594 624.605469 281.269531 621.886719 288.175781 619.304688 C 302.058594 614.105469 316.390625 610.828125 331.214844 610.164062 C 341.609375 609.675781 352 610.058594 362.257812 611.910156 C 371.882812 613.617188 381.542969 615.292969 391.066406 617.527344 C 410.804688 622.199219 430.441406 627.328125 450.148438 632.039062 C 457.332031 633.746094 464.691406 634.828125 472.015625 636.117188 C 475.644531 636.746094 479.339844 637.199219 483.316406 637.792969 C 482.339844 639.675781 481.503906 641.316406 480.667969 642.957031 C 461.726562 680.808594 442.824219 718.726562 423.78125 756.578125 C 416.039062 771.960938 407.910156 787.207031 400.027344 802.519531 C 399.367188 803.8125 398.738281 803.949219 397.484375 803.324219 C 394.203125 801.613281 390.855469 799.972656 387.472656 798.402344 C 372.929688 791.707031 358.070312 785.949219 341.957031 784.308594 C 331.667969 783.265625 321.554688 784.136719 311.753906 787.554688 C 298.117188 792.332031 285.734375 799.484375 274.121094 807.996094 C 253.996094 822.789062 242.730469 842.566406 241.054688 867.617188 C 240.21875 879.929688 242.660156 891.582031 249.566406 902.011719 C 255.84375 911.464844 264.597656 918.023438 274.675781 922.976562 C 286.292969 928.664062 298.082031 929.152344 310.042969 924.234375 C 332.402344 915.023438 351.128906 901 366.511719 882.335938 C 378.054688 868.347656 388.691406 853.695312 398.527344 838.453125 C 399.402344 837.089844 400.027344 836.882812 401.355469 837.824219 C 410.421875 844.3125 419.59375 850.660156 428.664062 857.148438 C 449.449219 872.082031 470.0625 887.289062 491.023438 902.046875 C 511.078125 916.175781 532.914062 926.988281 555.96875 935.222656 C 570.652344 940.457031 585.789062 943.875 601.414062 944.921875 C 611.910156 945.617188 622.410156 945.652344 632.875 944.292969 C 643.476562 942.898438 653.835938 940.523438 664.019531 937.246094 C 689.691406 929.046875 713.753906 917.605469 735.207031 901.210938 C 742.5625 895.59375 749.15625 888.964844 756.0625 882.753906 C 756.96875 881.953125 757.597656 880.871094 758.328125 879.894531 C 758.191406 879.71875 758.050781 879.546875 757.910156 879.371094 Z M 518.300781 609.992188 C 530.507812 587 543.34375 564.394531 557.816406 542.765625 C 571.976562 521.59375 587.742188 501.777344 606.503906 484.472656 C 613.167969 478.335938 619.96875 472.335938 627.851562 467.765625 C 636.605469 462.671875 646.128906 459.707031 656.207031 458.449219 C 664.542969 457.4375 672.667969 457.925781 680.480469 461.136719 C 692.480469 466.054688 700.46875 475.054688 705.351562 486.847656 C 712.152344 503.3125 711.140625 519.777344 704.652344 536.070312 C 699.070312 550.058594 690.003906 561.675781 679.574219 572.347656 C 662.136719 590.175781 641.3125 602.457031 617.703125 610.164062 C 606.4375 613.828125 595.066406 617.105469 583.382812 618.957031 C 574.453125 620.386719 565.453125 621.328125 556.421875 621.957031 C 548.433594 622.515625 540.414062 622.550781 532.390625 622.410156 C 526.25 622.304688 520.113281 621.605469 513.976562 621.152344 C 513.589844 621.117188 513.207031 620.980469 512.613281 620.875 C 514.566406 617.175781 516.417969 613.546875 518.300781 609.992188 Z M 382.625 833.359375 C 370.035156 854.394531 356.328125 874.695312 340.632812 893.570312 C 336.097656 899.011719 331.003906 903.964844 326.085938 909.023438 C 325.320312 909.792969 323.996094 910.28125 322.878906 910.382812 C 312.171875 911.640625 302.964844 907.628906 294.242188 902.046875 C 281.128906 893.710938 272.234375 882.230469 270.039062 866.671875 C 266.65625 842.636719 273.421875 821.671875 290.6875 804.300781 C 292.1875 802.765625 294.070312 802.3125 295.988281 801.925781 C 303.941406 800.355469 311.890625 800.460938 319.878906 801.648438 C 334.84375 803.914062 348.722656 809.425781 362.257812 815.914062 C 369.511719 819.40625 376.589844 823.3125 383.742188 827.042969 C 384.332031 827.359375 384.890625 827.742188 385.660156 828.230469 C 384.542969 830.078125 383.601562 831.71875 382.625 833.359375 Z M 382.625 833.359375 " fill-opacity="1" fill-rule="nonzero"/></g></svg>