<svg xmlns="http://www.w3.org/2000/svg" xmlns:xlink="http://www.w3.org/1999/xlink" width="1728" zoomAndPan="magnify" viewBox="0 0 1296 1727.999927" height="2304" preserveAspectRatio="xMidYMid meet" version="1.0"><defs><clipPath id="89a3cba047"><path d="M 801 546 L 919.359375 546 L 919.359375 664 L 801 664 Z M 801 546 " clip-rule="nonzero"/></clipPath><clipPath id="17c54e63ea"><path d="M 543 488.039062 L 662 488.039062 L 662 606 L 543 606 Z M 543 488.039062 " clip-rule="nonzero"/></clipPath><clipPath id="6998b0d392"><path d="M 262.359375 558 L 380 558 L 380 676 L 262.359375 676 Z M 262.359375 558 " clip-rule="nonzero"/></clipPath><clipPath id="df916f23da"><path d="M 274 1051 L 392 1051 L 392 1168.289062 L 274 1168.289062 Z M 274 1051 " clip-rule="nonzero"/></clipPath><clipPath id="604690aada"><path d="M 778 1051 L 896 1051 L 896 1168.289062 L 778 1168.289062 Z M 778 1051 " clip-rule="nonzero"/></clipPath></defs><path fill="#000000" d="M 602.585938 652.238281 C 599.128906 652.238281 595.679688 652.320312 592.230469 652.492188 C 588.78125 652.660156 585.335938 652.914062 581.902344 653.253906 C 578.464844 653.59375 575.039062 654.015625 571.621094 654.523438 C 568.203125 655.027344 564.804688 655.621094 561.417969 656.292969 C 558.027344 656.96875 554.660156 657.722656 551.308594 658.5625 C 547.960938 659.402344 544.632812 660.324219 541.328125 661.328125 C 538.023438 662.332031 534.746094 663.414062 531.492188 664.578125 C 528.242188 665.742188 525.019531 666.984375 521.832031 668.308594 C 518.640625 669.628906 515.484375 671.027344 512.363281 672.507812 C 509.238281 673.984375 506.15625 675.535156 503.109375 677.164062 C 500.0625 678.792969 497.058594 680.496094 494.097656 682.273438 C 491.136719 684.046875 488.21875 685.898438 485.347656 687.816406 C 482.476562 689.734375 479.652344 691.722656 476.878906 693.78125 C 474.105469 695.839844 471.382812 697.964844 468.714844 700.15625 C 466.042969 702.347656 463.429688 704.605469 460.871094 706.925781 C 458.3125 709.246094 455.8125 711.628906 453.371094 714.070312 C 450.929688 716.511719 448.546875 719.015625 446.226562 721.574219 C 443.910156 724.136719 441.652344 726.75 439.464844 729.421875 C 437.273438 732.09375 435.148438 734.816406 433.089844 737.589844 C 431.035156 740.363281 429.046875 743.1875 427.128906 746.0625 C 425.207031 748.933594 423.363281 751.851562 421.585938 754.816406 C 419.8125 757.78125 418.109375 760.785156 416.480469 763.832031 C 414.851562 766.878906 413.300781 769.964844 411.824219 773.085938 C 410.347656 776.210938 408.949219 779.367188 407.625 782.558594 C 406.304688 785.753906 405.0625 788.976562 403.898438 792.226562 C 402.734375 795.480469 401.652344 798.761719 400.648438 802.066406 C 399.648438 805.371094 398.726562 808.703125 397.886719 812.054688 C 397.046875 815.40625 396.292969 818.773438 395.617188 822.164062 C 394.945312 825.550781 394.355469 828.957031 393.847656 832.371094 C 393.339844 835.789062 392.917969 839.21875 392.578125 842.65625 C 392.242188 846.09375 391.988281 849.539062 391.816406 852.992188 C 391.648438 856.441406 391.5625 859.894531 391.5625 863.347656 C 391.5625 866.804688 391.648438 870.257812 391.816406 873.707031 C 391.988281 877.160156 392.242188 880.605469 392.578125 884.042969 C 392.917969 887.480469 393.339844 890.910156 393.847656 894.324219 C 394.355469 897.742188 394.945312 901.148438 395.617188 904.535156 C 396.292969 907.921875 397.046875 911.292969 397.886719 914.644531 C 398.726562 917.996094 399.648438 921.324219 400.648438 924.632812 C 401.652344 927.9375 402.734375 931.21875 403.898438 934.472656 C 405.0625 937.722656 406.304688 940.945312 407.625 944.136719 C 408.949219 947.332031 410.347656 950.488281 411.824219 953.613281 C 413.300781 956.734375 414.851562 959.820312 416.480469 962.867188 C 418.109375 965.914062 419.8125 968.917969 421.585938 971.882812 C 423.363281 974.847656 425.207031 977.765625 427.128906 980.636719 C 429.046875 983.507812 431.035156 986.332031 433.089844 989.109375 C 435.148438 991.882812 437.273438 994.605469 439.464844 997.277344 C 441.652344 999.949219 443.910156 1002.5625 446.226562 1005.125 C 448.546875 1007.683594 450.929688 1010.183594 453.371094 1012.628906 C 455.8125 1015.070312 458.3125 1017.453125 460.871094 1019.773438 C 463.429688 1022.09375 466.042969 1024.347656 468.714844 1026.542969 C 471.382812 1028.734375 474.105469 1030.859375 476.878906 1032.917969 C 479.652344 1034.972656 482.476562 1036.964844 485.347656 1038.882812 C 488.21875 1040.800781 491.136719 1042.648438 494.097656 1044.425781 C 497.058594 1046.203125 500.0625 1047.90625 503.109375 1049.535156 C 506.15625 1051.164062 509.238281 1052.714844 512.363281 1054.191406 C 515.484375 1055.667969 518.640625 1057.070312 521.832031 1058.390625 C 525.019531 1059.714844 528.242188 1060.957031 531.492188 1062.121094 C 534.746094 1063.285156 538.023438 1064.367188 541.328125 1065.371094 C 544.632812 1066.375 547.960938 1067.296875 551.308594 1068.132812 C 554.660156 1068.972656 558.027344 1069.730469 561.417969 1070.40625 C 564.804688 1071.078125 568.203125 1071.667969 571.621094 1072.175781 C 575.039062 1072.683594 578.464844 1073.105469 581.902344 1073.445312 C 585.335938 1073.785156 588.78125 1074.039062 592.230469 1074.207031 C 595.679688 1074.375 599.128906 1074.460938 602.585938 1074.460938 C 606.039062 1074.460938 609.488281 1074.375 612.9375 1074.207031 C 616.386719 1074.039062 619.832031 1073.785156 623.269531 1073.445312 C 626.703125 1073.105469 630.132812 1072.683594 633.546875 1072.175781 C 636.964844 1071.667969 640.367188 1071.078125 643.753906 1070.40625 C 647.140625 1069.730469 650.507812 1068.972656 653.859375 1068.132812 C 657.207031 1067.296875 660.535156 1066.375 663.839844 1065.371094 C 667.144531 1064.367188 670.421875 1063.285156 673.675781 1062.121094 C 676.925781 1060.957031 680.148438 1059.714844 683.339844 1058.390625 C 686.527344 1057.070312 689.683594 1055.667969 692.808594 1054.191406 C 695.929688 1052.714844 699.011719 1051.164062 702.058594 1049.535156 C 705.105469 1047.90625 708.109375 1046.203125 711.070312 1044.425781 C 714.03125 1042.648438 716.949219 1040.800781 719.820312 1038.882812 C 722.691406 1036.964844 725.515625 1034.972656 728.289062 1032.917969 C 731.0625 1030.859375 733.785156 1028.734375 736.453125 1026.542969 C 739.125 1024.347656 741.738281 1022.09375 744.296875 1019.773438 C 746.855469 1017.453125 749.355469 1015.070312 751.796875 1012.628906 C 754.242188 1010.183594 756.621094 1007.683594 758.941406 1005.125 C 761.257812 1002.5625 763.515625 999.949219 765.707031 997.277344 C 767.894531 994.605469 770.019531 991.882812 772.078125 989.109375 C 774.136719 986.332031 776.121094 983.507812 778.042969 980.636719 C 779.960938 977.765625 781.808594 974.847656 783.582031 971.882812 C 785.359375 968.917969 787.058594 965.914062 788.6875 962.867188 C 790.316406 959.820312 791.867188 956.734375 793.34375 953.609375 C 794.820312 950.488281 796.21875 947.332031 797.542969 944.136719 C 798.863281 940.945312 800.105469 937.722656 801.269531 934.472656 C 802.433594 931.21875 803.515625 927.9375 804.519531 924.632812 C 805.519531 921.324219 806.441406 917.996094 807.28125 914.644531 C 808.121094 911.292969 808.875 907.921875 809.550781 904.535156 C 810.222656 901.148438 810.8125 897.742188 811.320312 894.324219 C 811.828125 890.910156 812.25 887.480469 812.589844 884.042969 C 812.925781 880.605469 813.179688 877.160156 813.351562 873.707031 C 813.519531 870.257812 813.605469 866.804688 813.605469 863.347656 C 813.605469 859.894531 813.519531 856.441406 813.351562 852.992188 C 813.179688 849.539062 812.925781 846.09375 812.589844 842.65625 C 812.25 839.21875 811.828125 835.789062 811.320312 832.371094 C 810.8125 828.957031 810.222656 825.550781 809.550781 822.164062 C 808.875 818.773438 808.121094 815.40625 807.28125 812.054688 C 806.441406 808.703125 805.519531 805.371094 804.519531 802.066406 C 803.515625 798.761719 802.433594 795.480469 801.269531 792.226562 C 800.105469 788.976562 798.863281 785.753906 797.542969 782.558594 C 796.21875 779.367188 794.820312 776.210938 793.34375 773.085938 C 791.867188 769.964844 790.316406 766.878906 788.6875 763.832031 C 787.058594 760.785156 785.359375 757.78125 783.582031 754.816406 C 781.808594 751.851562 779.960938 748.933594 778.042969 746.0625 C 776.121094 743.1875 774.136719 740.363281 772.078125 737.589844 C 770.019531 734.816406 767.894531 732.09375 765.707031 729.421875 C 763.515625 726.75 761.257812 724.136719 758.941406 721.574219 C 756.621094 719.015625 754.242188 716.511719 751.796875 714.070312 C 749.355469 711.628906 746.855469 709.246094 744.296875 706.925781 C 741.738281 704.605469 739.125 702.347656 736.453125 700.15625 C 733.785156 697.964844 731.0625 695.839844 728.289062 693.78125 C 725.515625 691.722656 722.691406 689.734375 719.820312 687.816406 C 716.949219 685.898438 714.03125 684.046875 711.070312 682.273438 C 708.109375 680.496094 705.105469 678.792969 702.058594 677.164062 C 699.011719 675.535156 695.929688 673.984375 692.808594 672.507812 C 689.683594 671.027344 686.527344 669.628906 683.339844 668.308594 C 680.148438 666.984375 676.925781 665.742188 673.675781 664.578125 C 670.421875 663.414062 667.144531 662.332031 663.839844 661.328125 C 660.535156 660.324219 657.207031 659.402344 653.859375 658.5625 C 650.507812 657.722656 647.140625 656.96875 643.753906 656.292969 C 640.367188 655.621094 636.964844 655.027344 633.546875 654.523438 C 630.132812 654.015625 626.703125 653.59375 623.269531 653.253906 C 619.832031 652.914062 616.386719 652.660156 612.9375 652.492188 C 609.488281 652.320312 606.039062 652.238281 602.585938 652.238281 Z M 602.585938 652.238281 " fill-opacity="1" fill-rule="nonzero"/><path fill="#5271ff" d="M 602.585938 1086.191406 C 479.757812 1086.191406 379.839844 986.226562 379.839844 863.347656 C 379.839844 740.46875 479.757812 640.507812 602.585938 640.507812 C 725.410156 640.507812 825.328125 740.46875 825.328125 863.347656 C 825.328125 986.226562 725.410156 1086.191406 602.585938 1086.191406 Z M 602.585938 663.964844 C 492.691406 663.964844 403.289062 753.40625 403.289062 863.347656 C 403.289062 973.292969 492.691406 1062.734375 602.585938 1062.734375 C 712.480469 1062.734375 801.882812 973.292969 801.882812 863.347656 C 801.882812 753.40625 712.480469 663.964844 602.585938 663.964844 Z M 602.585938 663.964844 " fill-opacity="1" fill-rule="nonzero"/><path fill="#000000" d="M 860.5 558.410156 C 858.960938 558.410156 857.429688 558.484375 855.902344 558.636719 C 854.375 558.785156 852.855469 559.011719 851.351562 559.3125 C 849.84375 559.609375 848.355469 559.984375 846.886719 560.429688 C 845.417969 560.875 843.972656 561.394531 842.554688 561.980469 C 841.132812 562.570312 839.746094 563.226562 838.394531 563.949219 C 837.039062 564.671875 835.722656 565.460938 834.445312 566.316406 C 833.167969 567.167969 831.9375 568.082031 830.75 569.058594 C 829.5625 570.035156 828.425781 571.0625 827.339844 572.152344 C 826.253906 573.238281 825.222656 574.375 824.25 575.5625 C 823.273438 576.75 822.359375 577.980469 821.507812 579.257812 C 820.65625 580.539062 819.867188 581.851562 819.140625 583.207031 C 818.417969 584.5625 817.761719 585.949219 817.175781 587.371094 C 816.585938 588.789062 816.070312 590.234375 815.625 591.707031 C 815.179688 593.175781 814.804688 594.664062 814.503906 596.171875 C 814.207031 597.679688 813.980469 599.195312 813.832031 600.726562 C 813.679688 602.253906 813.605469 603.785156 813.605469 605.324219 C 813.605469 606.859375 813.679688 608.394531 813.832031 609.921875 C 813.980469 611.449219 814.207031 612.96875 814.503906 614.476562 C 814.804688 615.984375 815.179688 617.472656 815.625 618.941406 C 816.070312 620.414062 816.585938 621.855469 817.175781 623.277344 C 817.761719 624.695312 818.417969 626.082031 819.140625 627.4375 C 819.867188 628.792969 820.65625 630.109375 821.507812 631.386719 C 822.359375 632.664062 823.273438 633.898438 824.25 635.085938 C 825.222656 636.273438 826.253906 637.410156 827.339844 638.496094 C 828.425781 639.582031 829.5625 640.613281 830.75 641.589844 C 831.9375 642.5625 833.167969 643.476562 834.445312 644.332031 C 835.722656 645.183594 837.039062 645.972656 838.394531 646.699219 C 839.746094 647.421875 841.132812 648.078125 842.554688 648.667969 C 843.972656 649.253906 845.417969 649.769531 846.886719 650.21875 C 848.355469 650.664062 849.84375 651.035156 851.351562 651.335938 C 852.855469 651.636719 854.375 651.859375 855.902344 652.011719 C 857.429688 652.160156 858.960938 652.238281 860.5 652.238281 C 862.035156 652.238281 863.566406 652.160156 865.09375 652.011719 C 866.621094 651.859375 868.140625 651.636719 869.648438 651.335938 C 871.152344 651.035156 872.640625 650.664062 874.109375 650.21875 C 875.582031 649.769531 877.023438 649.253906 878.445312 648.667969 C 879.863281 648.078125 881.25 647.421875 882.605469 646.699219 C 883.957031 645.972656 885.273438 645.183594 886.550781 644.332031 C 887.828125 643.476562 889.058594 642.5625 890.246094 641.589844 C 891.433594 640.613281 892.570312 639.582031 893.65625 638.496094 C 894.742188 637.410156 895.773438 636.273438 896.746094 635.085938 C 897.722656 633.898438 898.636719 632.664062 899.488281 631.386719 C 900.34375 630.109375 901.128906 628.792969 901.855469 627.4375 C 902.578125 626.082031 903.234375 624.695312 903.820312 623.277344 C 904.410156 621.855469 904.925781 620.414062 905.371094 618.941406 C 905.816406 617.472656 906.191406 615.984375 906.492188 614.476562 C 906.789062 612.96875 907.015625 611.449219 907.164062 609.921875 C 907.316406 608.394531 907.390625 606.859375 907.390625 605.324219 C 907.390625 603.785156 907.316406 602.253906 907.164062 600.726562 C 907.015625 599.195312 906.789062 597.679688 906.492188 596.171875 C 906.191406 594.664062 905.820312 593.175781 905.371094 591.707031 C 904.925781 590.234375 904.410156 588.789062 903.820312 587.371094 C 903.234375 585.949219 902.578125 584.5625 901.855469 583.207031 C 901.128906 581.851562 900.34375 580.539062 899.488281 579.257812 C 898.636719 577.980469 897.722656 576.75 896.746094 575.5625 C 895.773438 574.375 894.742188 573.238281 893.65625 572.152344 C 892.570312 571.0625 891.433594 570.035156 890.246094 569.058594 C 889.058594 568.082031 887.828125 567.167969 886.550781 566.316406 C 885.273438 565.460938 883.957031 564.671875 882.605469 563.949219 C 881.25 563.226562 879.863281 562.570312 878.445312 561.980469 C 877.023438 561.394531 875.582031 560.875 874.109375 560.429688 C 872.640625 559.984375 871.152344 559.609375 869.648438 559.3125 C 868.140625 559.011719 866.621094 558.785156 865.09375 558.636719 C 863.566406 558.484375 862.035156 558.410156 860.5 558.410156 Z M 860.5 558.410156 " fill-opacity="1" fill-rule="nonzero"/><g clip-path="url(#89a3cba047)"><path fill="#5271ff" d="M 860.5 663.964844 C 828.175781 663.964844 801.882812 637.660156 801.882812 605.324219 C 801.882812 572.988281 828.175781 546.679688 860.5 546.679688 C 892.820312 546.679688 919.113281 572.988281 919.113281 605.324219 C 919.113281 637.660156 892.820312 663.964844 860.5 663.964844 Z M 860.5 570.136719 C 841.109375 570.136719 825.328125 585.925781 825.328125 605.324219 C 825.328125 624.722656 841.109375 640.507812 860.5 640.507812 C 879.890625 640.507812 895.667969 624.722656 895.667969 605.324219 C 895.667969 585.925781 879.890625 570.136719 860.5 570.136719 Z M 860.5 570.136719 " fill-opacity="1" fill-rule="nonzero"/></g><path fill="#000000" d="M 602.585938 499.765625 C 601.046875 499.765625 599.515625 499.84375 597.988281 499.992188 C 596.460938 500.144531 594.941406 500.371094 593.4375 500.667969 C 591.929688 500.96875 590.441406 501.339844 588.972656 501.789062 C 587.503906 502.234375 586.058594 502.75 584.640625 503.339844 C 583.21875 503.925781 581.832031 504.582031 580.480469 505.308594 C 579.125 506.03125 577.808594 506.820312 576.53125 507.675781 C 575.253906 508.527344 574.023438 509.441406 572.835938 510.417969 C 571.648438 511.390625 570.511719 512.421875 569.425781 513.507812 C 568.339844 514.59375 567.308594 515.730469 566.335938 516.917969 C 565.359375 518.105469 564.445312 519.339844 563.59375 520.617188 C 562.742188 521.894531 561.953125 523.210938 561.226562 524.566406 C 560.503906 525.921875 559.847656 527.308594 559.261719 528.726562 C 558.671875 530.148438 558.15625 531.59375 557.710938 533.0625 C 557.265625 534.535156 556.890625 536.023438 556.59375 537.527344 C 556.292969 539.035156 556.066406 540.554688 555.917969 542.082031 C 555.765625 543.613281 555.691406 545.144531 555.691406 546.679688 C 555.691406 548.21875 555.765625 549.75 555.917969 551.28125 C 556.066406 552.808594 556.292969 554.328125 556.59375 555.832031 C 556.890625 557.339844 557.265625 558.828125 557.710938 560.300781 C 558.15625 561.769531 558.671875 563.214844 559.261719 564.632812 C 559.847656 566.054688 560.503906 567.441406 561.226562 568.796875 C 561.953125 570.152344 562.742188 571.46875 563.59375 572.746094 C 564.445312 574.023438 565.359375 575.253906 566.335938 576.441406 C 567.308594 577.628906 568.339844 578.769531 569.425781 579.855469 C 570.511719 580.941406 571.648438 581.972656 572.835938 582.945312 C 574.023438 583.921875 575.253906 584.835938 576.53125 585.6875 C 577.808594 586.542969 579.125 587.332031 580.480469 588.054688 C 581.832031 588.78125 583.21875 589.4375 584.640625 590.023438 C 586.058594 590.613281 587.503906 591.128906 588.972656 591.574219 C 590.441406 592.019531 591.929688 592.394531 593.4375 592.695312 C 594.941406 592.992188 596.460938 593.21875 597.988281 593.371094 C 599.515625 593.519531 601.046875 593.59375 602.585938 593.59375 C 604.121094 593.59375 605.652344 593.519531 607.179688 593.371094 C 608.710938 593.21875 610.226562 592.992188 611.734375 592.695312 C 613.238281 592.394531 614.726562 592.019531 616.195312 591.574219 C 617.667969 591.128906 619.109375 590.613281 620.53125 590.023438 C 621.949219 589.4375 623.335938 588.78125 624.691406 588.054688 C 626.042969 587.332031 627.359375 586.542969 628.636719 585.6875 C 629.914062 584.835938 631.144531 583.921875 632.332031 582.945312 C 633.519531 581.972656 634.65625 580.941406 635.742188 579.855469 C 636.828125 578.769531 637.859375 577.628906 638.832031 576.441406 C 639.808594 575.253906 640.722656 574.023438 641.574219 572.746094 C 642.429688 571.46875 643.214844 570.152344 643.941406 568.796875 C 644.664062 567.441406 645.320312 566.054688 645.90625 564.632812 C 646.496094 563.214844 647.011719 561.769531 647.457031 560.300781 C 647.90625 558.828125 648.277344 557.339844 648.578125 555.832031 C 648.875 554.328125 649.101562 552.808594 649.253906 551.28125 C 649.402344 549.75 649.476562 548.21875 649.476562 546.679688 C 649.476562 545.144531 649.402344 543.613281 649.253906 542.082031 C 649.101562 540.554688 648.875 539.035156 648.578125 537.527344 C 648.277344 536.023438 647.90625 534.535156 647.457031 533.0625 C 647.011719 531.59375 646.496094 530.148438 645.90625 528.726562 C 645.320312 527.308594 644.664062 525.921875 643.941406 524.566406 C 643.214844 523.210938 642.429688 521.894531 641.574219 520.617188 C 640.722656 519.339844 639.808594 518.105469 638.832031 516.917969 C 637.859375 515.730469 636.828125 514.59375 635.742188 513.507812 C 634.65625 512.421875 633.519531 511.390625 632.332031 510.417969 C 631.144531 509.441406 629.914062 508.527344 628.636719 507.675781 C 627.359375 506.820312 626.042969 506.03125 624.691406 505.308594 C 623.335938 504.582031 621.949219 503.925781 620.53125 503.339844 C 619.109375 502.75 617.667969 502.234375 616.195312 501.789062 C 614.726562 501.339844 613.238281 500.96875 611.734375 500.667969 C 610.226562 500.371094 608.710938 500.144531 607.179688 499.992188 C 605.652344 499.84375 604.121094 499.765625 602.585938 499.765625 Z M 602.585938 499.765625 " fill-opacity="1" fill-rule="nonzero"/><g clip-path="url(#17c54e63ea)"><path fill="#5271ff" d="M 602.585938 605.324219 C 570.261719 605.324219 543.96875 579.015625 543.96875 546.679688 C 543.96875 514.347656 570.261719 488.039062 602.585938 488.039062 C 634.90625 488.039062 661.199219 514.347656 661.199219 546.679688 C 661.199219 579.015625 634.90625 605.324219 602.585938 605.324219 Z M 602.585938 511.496094 C 583.195312 511.496094 567.414062 527.28125 567.414062 546.679688 C 567.414062 566.082031 583.195312 581.867188 602.585938 581.867188 C 621.976562 581.867188 637.753906 566.082031 637.753906 546.679688 C 637.753906 527.28125 621.976562 511.496094 602.585938 511.496094 Z M 602.585938 511.496094 " fill-opacity="1" fill-rule="nonzero"/></g><path fill="#000000" d="M 321.222656 570.136719 C 319.6875 570.136719 318.15625 570.214844 316.628906 570.363281 C 315.097656 570.515625 313.582031 570.738281 312.074219 571.039062 C 310.570312 571.339844 309.082031 571.710938 307.609375 572.160156 C 306.140625 572.605469 304.695312 573.121094 303.277344 573.710938 C 301.859375 574.296875 300.472656 574.953125 299.117188 575.675781 C 297.765625 576.402344 296.449219 577.191406 295.171875 578.042969 C 293.894531 578.898438 292.660156 579.8125 291.476562 580.789062 C 290.289062 581.761719 289.152344 582.792969 288.066406 583.878906 C 286.980469 584.964844 285.949219 586.101562 284.972656 587.289062 C 284 588.476562 283.085938 589.710938 282.234375 590.988281 C 281.378906 592.265625 280.589844 593.582031 279.867188 594.9375 C 279.144531 596.292969 278.488281 597.679688 277.898438 599.097656 C 277.3125 600.519531 276.796875 601.964844 276.347656 603.433594 C 275.902344 604.902344 275.53125 606.394531 275.230469 607.898438 C 274.933594 609.40625 274.707031 610.925781 274.554688 612.453125 C 274.40625 613.984375 274.332031 615.515625 274.332031 617.050781 C 274.332031 618.589844 274.40625 620.121094 274.554688 621.648438 C 274.707031 623.179688 274.933594 624.699219 275.230469 626.203125 C 275.53125 627.710938 275.902344 629.199219 276.347656 630.671875 C 276.796875 632.140625 277.3125 633.585938 277.898438 635.003906 C 278.488281 636.425781 279.144531 637.8125 279.867188 639.167969 C 280.589844 640.523438 281.378906 641.839844 282.234375 643.117188 C 283.085938 644.394531 284 645.625 284.972656 646.8125 C 285.949219 648 286.980469 649.136719 288.066406 650.226562 C 289.152344 651.3125 290.289062 652.34375 291.476562 653.316406 C 292.660156 654.292969 293.894531 655.207031 295.171875 656.058594 C 296.449219 656.914062 297.765625 657.703125 299.117188 658.425781 C 300.472656 659.152344 301.859375 659.808594 303.277344 660.394531 C 304.695312 660.984375 306.140625 661.5 307.609375 661.945312 C 309.082031 662.390625 310.570312 662.765625 312.074219 663.0625 C 313.582031 663.363281 315.097656 663.589844 316.628906 663.738281 C 318.15625 663.890625 319.6875 663.964844 321.222656 663.964844 C 322.757812 663.964844 324.292969 663.890625 325.820312 663.738281 C 327.347656 663.589844 328.867188 663.363281 330.371094 663.0625 C 331.878906 662.765625 333.367188 662.390625 334.835938 661.945312 C 336.304688 661.5 337.75 660.984375 339.167969 660.394531 C 340.589844 659.808594 341.976562 659.152344 343.328125 658.425781 C 344.683594 657.703125 346 656.914062 347.277344 656.058594 C 348.554688 655.207031 349.785156 654.292969 350.972656 653.316406 C 352.160156 652.34375 353.296875 651.3125 354.382812 650.226562 C 355.46875 649.136719 356.5 648 357.472656 646.8125 C 358.445312 645.625 359.359375 644.394531 360.214844 643.117188 C 361.066406 641.839844 361.855469 640.523438 362.578125 639.167969 C 363.304688 637.8125 363.960938 636.425781 364.546875 635.003906 C 365.136719 633.585938 365.652344 632.140625 366.097656 630.671875 C 366.542969 629.199219 366.917969 627.710938 367.214844 626.203125 C 367.515625 624.699219 367.742188 623.179688 367.890625 621.648438 C 368.042969 620.121094 368.117188 618.589844 368.117188 617.050781 C 368.117188 615.515625 368.042969 613.984375 367.890625 612.453125 C 367.742188 610.925781 367.515625 609.40625 367.214844 607.898438 C 366.917969 606.394531 366.542969 604.902344 366.097656 603.433594 C 365.652344 601.964844 365.136719 600.519531 364.546875 599.097656 C 363.960938 597.679688 363.304688 596.292969 362.578125 594.9375 C 361.855469 593.582031 361.066406 592.265625 360.214844 590.988281 C 359.359375 589.710938 358.445312 588.476562 357.472656 587.289062 C 356.5 586.101562 355.46875 584.964844 354.382812 583.878906 C 353.296875 582.792969 352.160156 581.761719 350.972656 580.789062 C 349.785156 579.8125 348.554688 578.898438 347.277344 578.042969 C 346 577.191406 344.683594 576.402344 343.328125 575.675781 C 341.976562 574.953125 340.589844 574.296875 339.167969 573.710938 C 337.75 573.121094 336.304688 572.605469 334.835938 572.160156 C 333.367188 571.710938 331.878906 571.339844 330.371094 571.039062 C 328.867188 570.738281 327.347656 570.515625 325.820312 570.363281 C 324.292969 570.214844 322.757812 570.136719 321.222656 570.136719 Z M 321.222656 570.136719 " fill-opacity="1" fill-rule="nonzero"/><g clip-path="url(#6998b0d392)"><path fill="#5271ff" d="M 321.222656 675.695312 C 288.902344 675.695312 262.605469 649.386719 262.605469 617.050781 C 262.605469 584.714844 288.902344 558.410156 321.222656 558.410156 C 353.546875 558.410156 379.839844 584.714844 379.839844 617.050781 C 379.839844 649.386719 353.546875 675.695312 321.222656 675.695312 Z M 321.222656 581.867188 C 301.832031 581.867188 286.054688 597.652344 286.054688 617.050781 C 286.054688 636.449219 301.832031 652.238281 321.222656 652.238281 C 340.613281 652.238281 356.394531 636.449219 356.394531 617.050781 C 356.394531 597.652344 340.613281 581.867188 321.222656 581.867188 Z M 321.222656 581.867188 " fill-opacity="1" fill-rule="nonzero"/></g><path fill="#000000" d="M 332.945312 1062.734375 C 331.410156 1062.734375 329.878906 1062.808594 328.351562 1062.957031 C 326.820312 1063.109375 325.304688 1063.335938 323.796875 1063.632812 C 322.292969 1063.933594 320.804688 1064.308594 319.335938 1064.753906 C 317.863281 1065.199219 316.421875 1065.714844 315 1066.304688 C 313.582031 1066.890625 312.195312 1067.546875 310.839844 1068.273438 C 309.488281 1068.996094 308.171875 1069.785156 306.894531 1070.640625 C 305.617188 1071.492188 304.386719 1072.40625 303.199219 1073.382812 C 302.011719 1074.355469 300.875 1075.386719 299.789062 1076.472656 C 298.703125 1077.558594 297.671875 1078.695312 296.699219 1079.886719 C 295.722656 1081.074219 294.808594 1082.304688 293.957031 1083.582031 C 293.101562 1084.859375 292.316406 1086.175781 291.589844 1087.53125 C 290.867188 1088.886719 290.210938 1090.273438 289.625 1091.695312 C 289.035156 1093.113281 288.519531 1094.558594 288.074219 1096.027344 C 287.628906 1097.5 287.253906 1098.988281 286.953125 1100.496094 C 286.65625 1102 286.429688 1103.519531 286.28125 1105.046875 C 286.128906 1106.578125 286.054688 1108.109375 286.054688 1109.648438 C 286.054688 1111.183594 286.128906 1112.714844 286.28125 1114.246094 C 286.429688 1115.773438 286.65625 1117.292969 286.953125 1118.800781 C 287.253906 1120.304688 287.628906 1121.792969 288.074219 1123.265625 C 288.519531 1124.734375 289.035156 1126.179688 289.625 1127.601562 C 290.210938 1129.019531 290.867188 1130.40625 291.589844 1131.761719 C 292.316406 1133.117188 293.101562 1134.433594 293.957031 1135.710938 C 294.808594 1136.988281 295.722656 1138.222656 296.699219 1139.410156 C 297.671875 1140.597656 298.703125 1141.734375 299.789062 1142.820312 C 300.875 1143.90625 302.011719 1144.9375 303.199219 1145.910156 C 304.386719 1146.886719 305.617188 1147.800781 306.894531 1148.652344 C 308.171875 1149.507812 309.488281 1150.296875 310.839844 1151.019531 C 312.195312 1151.746094 313.582031 1152.402344 315 1152.988281 C 316.421875 1153.578125 317.863281 1154.09375 319.335938 1154.539062 C 320.804688 1154.988281 322.292969 1155.359375 323.796875 1155.660156 C 325.304688 1155.957031 326.820312 1156.183594 328.351562 1156.335938 C 329.878906 1156.484375 331.410156 1156.5625 332.945312 1156.5625 C 334.484375 1156.5625 336.015625 1156.484375 337.542969 1156.335938 C 339.070312 1156.183594 340.589844 1155.957031 342.09375 1155.660156 C 343.601562 1155.359375 345.089844 1154.988281 346.558594 1154.539062 C 348.027344 1154.09375 349.472656 1153.578125 350.890625 1152.988281 C 352.3125 1152.402344 353.699219 1151.746094 355.050781 1151.019531 C 356.40625 1150.296875 357.722656 1149.507812 359 1148.652344 C 360.277344 1147.800781 361.507812 1146.886719 362.695312 1145.910156 C 363.882812 1144.9375 365.019531 1143.90625 366.105469 1142.820312 C 367.191406 1141.734375 368.222656 1140.597656 369.195312 1139.410156 C 370.171875 1138.222656 371.085938 1136.988281 371.9375 1135.710938 C 372.789062 1134.433594 373.578125 1133.117188 374.304688 1131.761719 C 375.027344 1130.40625 375.683594 1129.019531 376.269531 1127.601562 C 376.859375 1126.179688 377.375 1124.734375 377.820312 1123.265625 C 378.265625 1121.792969 378.640625 1120.304688 378.9375 1118.800781 C 379.238281 1117.292969 379.464844 1115.773438 379.613281 1114.246094 C 379.765625 1112.714844 379.839844 1111.183594 379.839844 1109.648438 C 379.839844 1108.109375 379.765625 1106.578125 379.613281 1105.046875 C 379.464844 1103.519531 379.238281 1102 378.9375 1100.496094 C 378.640625 1098.988281 378.265625 1097.5 377.820312 1096.027344 C 377.375 1094.558594 376.859375 1093.113281 376.269531 1091.695312 C 375.683594 1090.273438 375.027344 1088.886719 374.304688 1087.53125 C 373.578125 1086.175781 372.789062 1084.859375 371.9375 1083.582031 C 371.085938 1082.304688 370.171875 1081.074219 369.195312 1079.886719 C 368.222656 1078.695312 367.191406 1077.558594 366.105469 1076.472656 C 365.019531 1075.386719 363.882812 1074.355469 362.695312 1073.382812 C 361.507812 1072.40625 360.277344 1071.492188 359 1070.640625 C 357.722656 1069.785156 356.40625 1068.996094 355.050781 1068.273438 C 353.699219 1067.546875 352.3125 1066.890625 350.890625 1066.304688 C 349.472656 1065.714844 348.027344 1065.199219 346.558594 1064.753906 C 345.089844 1064.308594 343.601562 1063.933594 342.09375 1063.632812 C 340.589844 1063.335938 339.070312 1063.109375 337.542969 1062.957031 C 336.015625 1062.808594 334.484375 1062.734375 332.945312 1062.734375 Z M 332.945312 1062.734375 " fill-opacity="1" fill-rule="nonzero"/><g clip-path="url(#df916f23da)"><path fill="#5271ff" d="M 332.945312 1168.289062 C 300.625 1168.289062 274.332031 1141.980469 274.332031 1109.648438 C 274.332031 1077.3125 300.625 1051.003906 332.945312 1051.003906 C 365.269531 1051.003906 391.5625 1077.3125 391.5625 1109.648438 C 391.5625 1141.980469 365.269531 1168.289062 332.945312 1168.289062 Z M 332.945312 1074.460938 C 313.554688 1074.460938 297.777344 1090.246094 297.777344 1109.648438 C 297.777344 1129.046875 313.554688 1144.832031 332.945312 1144.832031 C 352.335938 1144.832031 368.117188 1129.046875 368.117188 1109.648438 C 368.117188 1090.246094 352.335938 1074.460938 332.945312 1074.460938 Z M 332.945312 1074.460938 " fill-opacity="1" fill-rule="nonzero"/></g><path fill="#000000" d="M 837.050781 1062.734375 C 835.515625 1062.734375 833.984375 1062.808594 832.457031 1062.957031 C 830.925781 1063.109375 829.410156 1063.335938 827.902344 1063.632812 C 826.398438 1063.933594 824.910156 1064.308594 823.4375 1064.753906 C 821.96875 1065.199219 820.523438 1065.714844 819.105469 1066.304688 C 817.6875 1066.890625 816.300781 1067.546875 814.945312 1068.273438 C 813.589844 1068.996094 812.277344 1069.785156 811 1070.640625 C 809.722656 1071.492188 808.488281 1072.40625 807.300781 1073.382812 C 806.117188 1074.355469 804.980469 1075.386719 803.894531 1076.472656 C 802.808594 1077.558594 801.777344 1078.695312 800.800781 1079.886719 C 799.828125 1081.074219 798.914062 1082.304688 798.0625 1083.582031 C 797.207031 1084.859375 796.417969 1086.175781 795.695312 1087.53125 C 794.972656 1088.886719 794.316406 1090.273438 793.726562 1091.695312 C 793.140625 1093.113281 792.625 1094.558594 792.175781 1096.027344 C 791.730469 1097.5 791.359375 1098.988281 791.058594 1100.496094 C 790.757812 1102 790.535156 1103.519531 790.382812 1105.046875 C 790.234375 1106.578125 790.15625 1108.109375 790.15625 1109.648438 C 790.15625 1111.183594 790.234375 1112.714844 790.382812 1114.246094 C 790.535156 1115.773438 790.757812 1117.292969 791.058594 1118.800781 C 791.359375 1120.304688 791.730469 1121.792969 792.175781 1123.265625 C 792.625 1124.734375 793.140625 1126.179688 793.726562 1127.601562 C 794.316406 1129.019531 794.972656 1130.40625 795.695312 1131.761719 C 796.417969 1133.117188 797.207031 1134.433594 798.0625 1135.710938 C 798.914062 1136.988281 799.828125 1138.222656 800.800781 1139.410156 C 801.777344 1140.597656 802.808594 1141.734375 803.894531 1142.820312 C 804.980469 1143.90625 806.117188 1144.9375 807.300781 1145.910156 C 808.488281 1146.886719 809.722656 1147.800781 811 1148.652344 C 812.277344 1149.507812 813.589844 1150.296875 814.945312 1151.019531 C 816.300781 1151.746094 817.6875 1152.402344 819.105469 1152.988281 C 820.523438 1153.578125 821.96875 1154.09375 823.4375 1154.539062 C 824.910156 1154.988281 826.398438 1155.359375 827.902344 1155.660156 C 829.410156 1155.957031 830.925781 1156.183594 832.457031 1156.335938 C 833.984375 1156.484375 835.515625 1156.5625 837.050781 1156.5625 C 838.585938 1156.5625 840.121094 1156.484375 841.648438 1156.335938 C 843.175781 1156.183594 844.695312 1155.957031 846.199219 1155.660156 C 847.707031 1155.359375 849.195312 1154.988281 850.664062 1154.539062 C 852.132812 1154.09375 853.578125 1153.578125 854.996094 1152.988281 C 856.414062 1152.402344 857.800781 1151.746094 859.15625 1151.019531 C 860.511719 1150.296875 861.828125 1149.507812 863.105469 1148.652344 C 864.382812 1147.800781 865.613281 1146.886719 866.800781 1145.910156 C 867.988281 1144.9375 869.125 1143.90625 870.210938 1142.820312 C 871.296875 1141.734375 872.328125 1140.597656 873.300781 1139.410156 C 874.273438 1138.222656 875.1875 1136.988281 876.042969 1135.710938 C 876.894531 1134.433594 877.683594 1133.117188 878.40625 1131.761719 C 879.132812 1130.40625 879.789062 1129.019531 880.375 1127.601562 C 880.964844 1126.179688 881.480469 1124.734375 881.925781 1123.265625 C 882.371094 1121.792969 882.746094 1120.304688 883.042969 1118.800781 C 883.34375 1117.292969 883.570312 1115.773438 883.71875 1114.246094 C 883.871094 1112.714844 883.945312 1111.183594 883.945312 1109.648438 C 883.945312 1108.109375 883.871094 1106.578125 883.71875 1105.046875 C 883.570312 1103.519531 883.34375 1102 883.042969 1100.496094 C 882.746094 1098.988281 882.371094 1097.5 881.925781 1096.027344 C 881.480469 1094.558594 880.964844 1093.113281 880.375 1091.695312 C 879.789062 1090.273438 879.132812 1088.886719 878.40625 1087.53125 C 877.683594 1086.175781 876.894531 1084.859375 876.042969 1083.582031 C 875.1875 1082.304688 874.273438 1081.074219 873.300781 1079.886719 C 872.328125 1078.695312 871.296875 1077.558594 870.210938 1076.472656 C 869.125 1075.386719 867.988281 1074.355469 866.800781 1073.382812 C 865.613281 1072.40625 864.382812 1071.492188 863.105469 1070.640625 C 861.828125 1069.785156 860.511719 1068.996094 859.15625 1068.273438 C 857.800781 1067.546875 856.414062 1066.890625 854.996094 1066.304688 C 853.578125 1065.714844 852.132812 1065.199219 850.664062 1064.753906 C 849.195312 1064.308594 847.707031 1063.933594 846.199219 1063.632812 C 844.695312 1063.335938 843.175781 1063.109375 841.648438 1062.957031 C 840.121094 1062.808594 838.585938 1062.734375 837.050781 1062.734375 Z M 837.050781 1062.734375 " fill-opacity="1" fill-rule="nonzero"/><g clip-path="url(#604690aada)"><path fill="#5271ff" d="M 837.050781 1168.289062 C 804.730469 1168.289062 778.433594 1141.980469 778.433594 1109.648438 C 778.433594 1077.3125 804.730469 1051.003906 837.050781 1051.003906 C 869.371094 1051.003906 895.667969 1077.3125 895.667969 1109.648438 C 895.667969 1141.980469 869.371094 1168.289062 837.050781 1168.289062 Z M 837.050781 1074.460938 C 817.660156 1074.460938 801.882812 1090.246094 801.882812 1109.648438 C 801.882812 1129.046875 817.660156 1144.832031 837.050781 1144.832031 C 856.441406 1144.832031 872.222656 1129.046875 872.222656 1109.648438 C 872.222656 1090.246094 856.441406 1074.460938 837.050781 1074.460938 Z M 837.050781 1074.460938 " fill-opacity="1" fill-rule="nonzero"/></g><path fill="#004aad" d="M 559.898438 857.097656 L 499.851562 892.367188 C 483.78125 900.621094 465.035156 917.5 465.035156 935.960938 L 465.035156 959.160156 C 465.035156 964.542969 477.882812 968.90625 483.125 968.90625 L 722.070312 968.90625 C 727.308594 968.90625 740.15625 964.542969 740.15625 959.160156 L 740.15625 935.902344 C 740.15625 917.464844 721.449219 900.609375 705.410156 892.34375 L 645.691406 857.097656 " fill-opacity="1" fill-rule="nonzero"/><path fill="#ff66c4" d="M 689.40625 875.054688 L 653.640625 857.085938 L 551.984375 857.085938 L 515.832031 875.183594 C 535.503906 909.476562 565.667969 933.835938 602.585938 933.835938 C 639.546875 933.835938 669.746094 909.417969 689.40625 875.054688 Z M 689.40625 875.054688 " fill-opacity="1" fill-rule="nonzero"/><path fill="#a6a6a6" d="M 675.65625 783.984375 C 675.65625 743.613281 642.949219 710.878906 602.585938 710.878906 C 562.222656 710.878906 529.511719 743.613281 529.511719 783.984375 C 529.511719 834.589844 562.234375 890.828125 602.585938 890.828125 C 642.9375 890.828125 675.65625 834.601562 675.65625 783.984375 Z M 675.65625 783.984375 " fill-opacity="1" fill-rule="nonzero"/><path fill="#5271ff" d="M 602.585938 910.261719 C 554.226562 910.261719 520.519531 848.453125 520.519531 792.980469 C 520.519531 748.597656 554.226562 699.152344 602.585938 699.152344 C 650.941406 699.152344 684.648438 748.597656 684.648438 792.980469 C 684.648438 848.453125 650.941406 910.261719 602.585938 910.261719 Z M 602.585938 722.609375 C 568.035156 722.609375 543.96875 759.695312 543.96875 792.980469 C 543.96875 836.375 569.570312 886.804688 602.585938 886.804688 C 635.597656 886.804688 661.199219 836.375 661.199219 792.980469 C 661.199219 759.695312 637.132812 722.609375 602.585938 722.609375 Z M 602.585938 722.609375 " fill-opacity="1" fill-rule="nonzero"/><path fill="#5271ff" d="M 719.816406 980.632812 L 485.351562 980.632812 C 472.644531 980.632812 461.902344 969.890625 461.902344 957.175781 L 461.902344 945.449219 C 461.902344 919.5625 480.542969 888.332031 502.785156 876.707031 L 545.351562 847.421875 L 558.632812 866.75 L 514.039062 897.292969 C 499.289062 904.667969 485.351562 928.078125 485.351562 945.449219 L 485.351562 957.175781 L 719.816406 957.175781 L 719.816406 945.449219 C 719.816406 928.101562 705.867188 904.691406 691.109375 897.292969 L 689.675781 896.445312 L 646.945312 866.738281 L 660.332031 847.46875 L 702.421875 876.742188 C 724.648438 888.402344 743.265625 919.621094 743.265625 945.449219 L 743.265625 957.175781 C 743.265625 969.890625 732.527344 980.632812 719.816406 980.632812 Z M 719.816406 980.632812 " fill-opacity="1" fill-rule="nonzero"/><path fill="#5271ff" d="M 349.964844 657.78125 L 365.40625 640.128906 L 449.230469 713.507812 L 433.792969 731.160156 Z M 349.964844 657.78125 " fill-opacity="1" fill-rule="nonzero"/><path fill="#5271ff" d="M 590.859375 593.59375 L 614.308594 593.59375 L 614.308594 651.265625 L 590.859375 651.265625 Z M 590.859375 593.59375 " fill-opacity="1" fill-rule="nonzero"/><path fill="#5271ff" d="M 745.222656 704.058594 L 819.472656 629.773438 L 836.050781 646.359375 L 761.804688 720.644531 Z M 745.222656 704.058594 " fill-opacity="1" fill-rule="nonzero"/><path fill="#5271ff" d="M 740.917969 1025.621094 L 757.894531 1009.441406 L 811.730469 1065.984375 L 794.753906 1082.164062 Z M 740.917969 1025.621094 " fill-opacity="1" fill-rule="nonzero"/><path fill="#5271ff" d="M 361.023438 1066.59375 L 440.925781 1001.867188 L 455.683594 1020.097656 L 375.777344 1084.824219 Z M 361.023438 1066.59375 " fill-opacity="1" fill-rule="nonzero"/></svg>