<svg xmlns="http://www.w3.org/2000/svg" xmlns:xlink="http://www.w3.org/1999/xlink" width="1728" zoomAndPan="magnify" viewBox="0 0 1296 1727.999927" height="2304" preserveAspectRatio="xMidYMid meet" version="1.0"><defs><clipPath id="87f2cd6890"><path d="M 336 739 L 619 739 L 619 1285.363281 L 336 1285.363281 Z M 336 739 " clip-rule="nonzero"/></clipPath><clipPath id="4a5f22b807"><path d="M 782 528.613281 L 835 528.613281 L 835 585 L 782 585 Z M 782 528.613281 " clip-rule="nonzero"/></clipPath><clipPath id="8c38704071"><path d="M 698 1032 L 924 1032 L 924 1285.363281 L 698 1285.363281 Z M 698 1032 " clip-rule="nonzero"/></clipPath></defs><path fill="#004aad" d="M 463.613281 734.019531 C 475.566406 734.019531 485.921875 742.132812 488.800781 753.746094 C 492.246094 767.644531 483.742188 781.753906 469.84375 785.207031 C 455.09375 788.867188 439.921875 793.136719 426.199219 797.816406 C 427.640625 801.679688 429.5 805.996094 431.710938 808.519531 L 523.082031 808.519531 C 523.675781 808.519531 524.292969 808.699219 524.9375 808.699219 C 525.59375 808.699219 526.277344 808.84375 526.980469 808.882812 C 532.738281 800.007812 536.09375 789.488281 536.09375 778.121094 C 536.09375 746.785156 510.695312 721.414062 479.351562 721.414062 C 462.59375 721.414062 447.535156 728.699219 437.148438 740.253906 C 448.714844 736.917969 456.734375 734.933594 457.347656 734.78125 C 459.398438 734.273438 461.511719 734.019531 463.613281 734.019531 Z M 463.613281 734.019531 " fill-opacity="1" fill-rule="nonzero"/><g clip-path="url(#87f2cd6890)"><path fill="#004aad" d="M 598.257812 1014.460938 C 603.699219 1014.460938 609.121094 1012.273438 613.101562 1007.957031 C 620.648438 999.761719 620.128906 987 611.933594 979.449219 L 575.78125 946.132812 C 576.070312 932.023438 576.238281 911.90625 575.460938 896.328125 C 575.046875 888.074219 574.070312 881.644531 572.992188 876.601562 L 572.691406 876.601562 L 572.691406 877.453125 C 560.082031 820.96875 534.964844 813.5625 523.261719 816.082031 L 429.359375 816.082031 C 423.484375 813.5625 418.214844 814.070312 413.5 813.320312 C 410.34375 812.816406 407.425781 812.050781 404.746094 811.550781 C 397.449219 810.195312 391.8125 808.734375 387.507812 807.527344 C 404.742188 798.792969 436.757812 787.511719 468.449219 779.648438 C 479.265625 776.964844 485.855469 765.992188 483.171875 755.179688 C 480.492188 744.371094 469.570312 737.757812 458.742188 740.441406 C 457.597656 740.722656 430.359375 747.5 402.832031 757.375 C 367.480469 770.046875 335.003906 785.390625 336.691406 811.589844 C 338.101562 833.453125 361.167969 844.320312 397.628906 851.0625 C 398.839844 851.289062 399.515625 851.5 400.757812 851.71875 C 402.738281 852.0625 406.253906 852.394531 406.253906 852.71875 L 406.253906 1254.117188 C 406.253906 1271.339844 420.558594 1285.292969 437.773438 1285.292969 C 454.992188 1285.292969 469.296875 1271.339844 469.296875 1254.117188 L 469.296875 1025.378906 L 481.90625 1025.378906 L 481.90625 1254.109375 C 481.90625 1271.332031 496.214844 1285.285156 513.425781 1285.285156 C 530.644531 1285.285156 544.953125 1271.332031 544.953125 1254.109375 L 544.953125 899.386719 C 544.953125 900.367188 547.472656 901.070312 549.996094 901.519531 L 549.996094 976.621094 L 550.164062 977.085938 L 584.761719 1009.117188 C 588.636719 1012.695312 593.371094 1014.460938 598.257812 1014.460938 Z M 598.257812 1014.460938 " fill-opacity="1" fill-rule="nonzero"/></g><path fill="#004aad" d="M 834.960938 855.8125 L 782 845.195312 L 782 852.113281 L 834.960938 859.238281 Z M 834.960938 855.8125 " fill-opacity="1" fill-rule="nonzero"/><path fill="#004aad" d="M 834.960938 763.167969 L 834.960938 763.128906 L 828.542969 763.128906 Z M 834.960938 763.167969 " fill-opacity="1" fill-rule="nonzero"/><path fill="#004aad" d="M 834.960938 672.347656 L 834.960938 666.460938 L 813.449219 672.347656 Z M 834.960938 672.347656 " fill-opacity="1" fill-rule="nonzero"/><g clip-path="url(#4a5f22b807)"><path fill="#004aad" d="M 834.960938 528.613281 L 782 528.613281 L 782 584.847656 L 834.960938 573.585938 Z M 834.960938 528.613281 " fill-opacity="1" fill-rule="nonzero"/></g><g clip-path="url(#8c38704071)"><path fill="#004aad" d="M 782 1249.671875 C 776.957031 1237.445312 766.90625 1225.152344 751.074219 1224.074219 C 761.875 1233.054688 766.097656 1247.625 767.484375 1259.496094 C 761.761719 1250.722656 752.84375 1241.734375 739.703125 1241.097656 C 749.753906 1247.035156 754.15625 1259.464844 756.039062 1268.460938 C 751.625 1264.238281 744.96875 1260.195312 735.671875 1259.742188 C 743.246094 1264.21875 746.777344 1269.984375 748.347656 1275.027344 L 698.785156 1275.027344 L 698.785156 1285.113281 L 923.226562 1285.113281 L 923.226562 1275.027344 L 868.6875 1275.027344 C 870.257812 1269.984375 873.765625 1264.21875 881.339844 1259.742188 C 872.039062 1260.195312 865.359375 1264.339844 860.945312 1268.5625 C 862.828125 1259.570312 867.1875 1247.085938 877.234375 1241.148438 C 864.09375 1241.785156 855.078125 1250.746094 849.359375 1259.523438 C 850.746094 1247.65625 854.804688 1233.070312 865.605469 1224.089844 C 850.34375 1225.132812 840.003906 1236.578125 834.960938 1248.355469 L 834.960938 1042.199219 L 782.003906 1032.535156 L 782.003906 1249.671875 Z M 782 1249.671875 " fill-opacity="1" fill-rule="nonzero"/></g><path fill="#004aad" d="M 902.976562 644.644531 L 956.613281 594.046875 L 887 570.226562 L 707.878906 609.46875 L 721.347656 672.347656 L 777.617188 672.347656 Z M 902.976562 644.644531 " fill-opacity="1" fill-rule="nonzero"/><path fill="#004aad" d="M 903.304688 876.222656 L 721.742188 851.40625 L 711.496094 926.359375 L 893.058594 951.179688 L 960.648438 922.242188 Z M 903.304688 876.222656 " fill-opacity="1" fill-rule="nonzero"/><path fill="#004aad" d="M 883.410156 857.976562 L 952.734375 833.5 L 898.511719 784.476562 L 790.652344 763.128906 L 715.972656 763.128906 L 703.84375 822.019531 Z M 883.410156 857.976562 " fill-opacity="1" fill-rule="nonzero"/><path fill="#004aad" d="M 882.875 755.5625 L 882.875 679.914062 L 698.714844 679.914062 L 635.671875 717.738281 L 698.714844 755.5625 Z M 882.875 755.5625 " fill-opacity="1" fill-rule="nonzero"/><path fill="#004aad" d="M 706.5625 933.757812 L 637.675781 959.453125 L 692.765625 1008.140625 L 872.945312 1041.558594 L 886.742188 967.179688 Z M 706.5625 933.757812 " fill-opacity="1" fill-rule="nonzero"/><path fill="#004aad" d="M 521.445312 692.402344 C 519.839844 694.542969 519.035156 696.433594 519.035156 698.070312 C 519.035156 702.421875 520.996094 704.597656 524.921875 704.597656 C 526.242188 704.597656 527.898438 703.964844 529.894531 702.699219 C 531.890625 701.433594 533.050781 699.621094 533.371094 697.269531 L 533.90625 693.953125 C 533.90625 693.132812 532.996094 692.136719 531.179688 690.957031 C 529.359375 689.78125 527.84375 689.191406 526.632812 689.191406 C 524.78125 689.195312 523.050781 690.265625 521.445312 692.402344 Z M 521.445312 692.402344 " fill-opacity="1" fill-rule="nonzero"/><path fill="#004aad" d="M 534.339844 673.308594 C 534.410156 669.957031 535.191406 665.480469 536.691406 659.882812 C 538.117188 654.5 539.554688 648.605469 541 642.207031 C 542.441406 635.808594 543.164062 632.105469 543.164062 631.105469 C 543.164062 629.859375 542.515625 628.707031 541.210938 627.65625 C 539.910156 626.605469 538.546875 626.082031 537.121094 626.082031 C 535.800781 626.082031 534.195312 626.757812 532.304688 628.113281 C 530.417969 629.46875 529.285156 631.4375 528.910156 634.023438 C 528.535156 636.609375 528.347656 638.097656 528.347656 638.488281 C 528.347656 642.449219 527.472656 648.40625 525.726562 656.355469 C 524.15625 663.703125 523.660156 670.851562 524.226562 677.804688 C 526.1875 679.265625 528.953125 680 532.519531 680 C 533.65625 678.070312 534.265625 675.839844 534.339844 673.308594 Z M 534.339844 673.308594 " fill-opacity="1" fill-rule="nonzero"/><path fill="#004aad" d="M 560.28125 695.664062 C 557.425781 697.628906 556 699.429688 556 701.070312 C 556 703.066406 556.765625 704.726562 558.300781 706.046875 C 559.832031 707.363281 561.726562 708.023438 563.96875 708.023438 C 566.109375 708.023438 568.417969 707.230469 570.898438 705.644531 C 573.375 704.058594 574.613281 702.160156 574.613281 699.949219 C 574.613281 697.132812 572.988281 695.617188 569.746094 695.402344 C 568 694.191406 566.558594 693.582031 565.414062 693.582031 C 563.773438 693.582031 562.488281 693.957031 561.5625 694.707031 C 561.242188 694.988281 560.816406 695.308594 560.28125 695.664062 Z M 560.28125 695.664062 " fill-opacity="1" fill-rule="nonzero"/><path fill="#004aad" d="M 564.691406 633.257812 C 562.605469 635.699219 561.5625 637.898438 561.5625 639.789062 C 561.5625 642.929688 563.203125 644.515625 566.484375 644.515625 C 571.511719 644.515625 574.257812 642.933594 574.722656 639.761719 C 574.898438 638.835938 575.675781 637.894531 577.050781 636.933594 C 578.421875 635.96875 581.035156 635.492188 584.886719 635.492188 C 586.203125 635.492188 587.523438 635.707031 588.84375 636.132812 C 590.164062 636.5625 591.054688 637.035156 591.519531 637.550781 C 591.984375 638.070312 592.492188 639.363281 593.042969 641.429688 C 593.597656 643.496094 593.875 645.140625 593.875 646.351562 C 593.875 648.066406 593.445312 649.792969 592.589844 651.539062 C 591.730469 653.285156 590.679688 654.425781 589.433594 654.964844 L 582.210938 657.796875 C 577.644531 659.582031 574.550781 660.898438 572.929688 661.757812 C 571.304688 662.613281 569.515625 663.863281 567.554688 665.5 C 565.375 669.921875 564.03125 672.855469 563.515625 674.300781 C 563 675.746094 562.738281 677.304688 562.738281 678.980469 C 562.738281 680.546875 563.023438 682.054688 563.597656 683.5 C 564.167969 684.945312 564.949219 685.664062 565.949219 685.664062 C 569.015625 685.664062 571.191406 685.21875 572.476562 684.328125 C 573.757812 683.4375 574.578125 682.0625 574.9375 680.210938 C 575.648438 676.714844 576.488281 673.71875 577.449219 671.222656 C 586.402344 668.121094 592.304688 665.902344 595.15625 664.5625 C 598.007812 663.226562 600.316406 660.871094 602.453125 657.503906 C 604.59375 654.132812 605.472656 649.792969 605.472656 644.480469 L 605.472656 644.425781 C 605.472656 639.613281 605.023438 636.082031 603.953125 633.835938 C 602.882812 631.589844 600.5 629.164062 596.613281 626.558594 C 594.257812 624.921875 591.132812 624.1875 587.136719 624.367188 C 585.070312 624.4375 583.023438 624.421875 580.957031 624.460938 C 577.996094 624.53125 575.203125 624.4375 572.527344 626.957031 L 572.582031 626.957031 C 569.410156 629.480469 566.777344 630.816406 564.691406 633.257812 Z M 564.691406 633.257812 " fill-opacity="1" fill-rule="nonzero"/></svg>