<svg xmlns="http://www.w3.org/2000/svg" xmlns:xlink="http://www.w3.org/1999/xlink" width="1728" zoomAndPan="magnify" viewBox="0 0 1296 1727.999927" height="2304" preserveAspectRatio="xMidYMid meet" version="1.0"><defs><clipPath id="cdf188097f"><path d="M 313 605 L 793 605 L 793 1251.582031 L 313 1251.582031 Z M 313 605 " clip-rule="nonzero"/></clipPath><clipPath id="68a8874b42"><path d="M 783 433 L 955 433 L 955 605 L 783 605 Z M 783 433 " clip-rule="nonzero"/></clipPath><clipPath id="574915b196"><path d="M 989.519531 493.9375 L 765.191406 718.269531 L 672.914062 625.992188 L 897.242188 401.660156 Z M 989.519531 493.9375 " clip-rule="nonzero"/></clipPath><clipPath id="045e82c573"><path d="M 989.519531 493.9375 L 765.191406 718.269531 L 672.914062 625.992188 L 897.242188 401.660156 Z M 989.519531 493.9375 " clip-rule="nonzero"/></clipPath><clipPath id="13b5545167"><path d="M 878 409 L 942 409 L 942 473 L 878 473 Z M 878 409 " clip-rule="nonzero"/></clipPath><clipPath id="e05c849ca8"><path d="M 989.519531 493.9375 L 765.191406 718.269531 L 672.914062 625.992188 L 897.242188 401.660156 Z M 989.519531 493.9375 " clip-rule="nonzero"/></clipPath><clipPath id="535d463db2"><path d="M 989.519531 493.9375 L 765.191406 718.269531 L 672.914062 625.992188 L 897.242188 401.660156 Z M 989.519531 493.9375 " clip-rule="nonzero"/></clipPath><clipPath id="74de035a8f"><path d="M 839 449 L 903 449 L 903 513 L 839 513 Z M 839 449 " clip-rule="nonzero"/></clipPath><clipPath id="17a5dd17a7"><path d="M 989.519531 493.9375 L 765.191406 718.269531 L 672.914062 625.992188 L 897.242188 401.660156 Z M 989.519531 493.9375 " clip-rule="nonzero"/></clipPath><clipPath id="c3d3fbbf06"><path d="M 989.519531 493.9375 L 765.191406 718.269531 L 672.914062 625.992188 L 897.242188 401.660156 Z M 989.519531 493.9375 " clip-rule="nonzero"/></clipPath><clipPath id="4f77da1abd"><path d="M 700 560 L 831 560 L 831 692 L 700 692 Z M 700 560 " clip-rule="nonzero"/></clipPath><clipPath id="ef7d3092fc"><path d="M 989.519531 493.9375 L 765.191406 718.269531 L 672.914062 625.992188 L 897.242188 401.660156 Z M 989.519531 493.9375 " clip-rule="nonzero"/></clipPath><clipPath id="6eebd8369b"><path d="M 989.519531 493.9375 L 765.191406 718.269531 L 672.914062 625.992188 L 897.242188 401.660156 Z M 989.519531 493.9375 " clip-rule="nonzero"/></clipPath></defs><path fill="#004aad" d="M 564.71875 743.601562 C 610.066406 739.535156 645.613281 694.941406 641.101562 644.097656 C 636.640625 593.207031 590.425781 560.125 540.898438 570.015625 C 491.273438 579.917969 460.195312 624.03125 468.816406 669.078125 C 477.546875 714.125 519.273438 747.675781 564.71875 743.601562 " fill-opacity="1" fill-rule="nonzero"/><path stroke-linecap="round" transform="matrix(0.231618, 0, 0, -0.231891, 153.833803, 1401.150362)" fill="none" stroke-linejoin="round" d="M 1773.977744 2835.59032 C 1969.764262 2853.126148 2123.236336 3045.430667 2103.757188 3264.687466 C 2084.497286 3484.146408 1884.966724 3626.808196 1671.134589 3584.156213 C 1456.880827 3541.453694 1322.702385 3351.221131 1359.923579 3156.962571 C 1397.616995 2962.704012 1577.769599 2818.020803 1773.977744 2835.59032 Z M 1773.977744 2835.59032 " stroke="#231f20" stroke-width="30" stroke-opacity="1" stroke-miterlimit="10"/><path fill="#004aad" d="M 662.652344 825.125 C 700.28125 781.664062 738.804688 735.621094 777.972656 686.789062 C 793.378906 667.628906 792.753906 637.210938 775.457031 620.191406 C 758.195312 603.125 731.386719 605.996094 716.636719 625.191406 C 678.9375 674.195312 641.824219 720.367188 605.542969 763.917969 C 603.722656 766.121094 602.175781 768.457031 600.890625 770.921875 C 575.132812 773.050781 549.375 775.167969 523.609375 777.296875 C 521.988281 775.167969 520.117188 773.203125 517.988281 771.453125 C 475.71875 736.472656 429.964844 704.261719 381.019531 675.148438 C 361.757812 663.714844 335.4375 669.503906 323.160156 686.714844 C 310.828125 703.953125 316.726562 726.316406 335.355469 737.957031 C 383 767.46875 427.359375 800.023438 468.210938 835.207031 C 470.226562 836.945312 472.355469 838.421875 474.570312 839.65625 C 476.089844 841.78125 477.800781 843.703125 479.664062 845.425781 C 478.742188 890.644531 476.433594 935.625 472.644531 980.347656 C 472.742188 985.445312 473.484375 990.394531 474.75 995.140625 C 464.554688 1052.023438 452.621094 1107.96875 439.050781 1162.988281 C 433.792969 1184.78125 444.957031 1209.710938 463.886719 1219.148438 C 482.8125 1228.570312 503.921875 1218.097656 511.09375 1195.253906 C 526.984375 1143.710938 541.367188 1091.183594 554.332031 1037.765625 C 561.953125 1038.265625 569.5625 1038.78125 577.179688 1039.28125 C 581.511719 1094.589844 582.371094 1150.535156 579.585938 1206.757812 C 578.492188 1231.503906 593.679688 1250.058594 614.917969 1247.855469 C 636.125 1245.691406 656.355469 1222.699219 658.699219 1196.847656 C 664.386719 1132.136719 665.5 1067.578125 662.207031 1003.679688 C 664.125 998.4375 665.464844 992.828125 666.105469 986.949219 C 664.921875 936.117188 661.085938 885.589844 654.714844 835.542969 C 656.183594 833.558594 657.484375 831.382812 658.632812 829.066406 C 660.027344 827.871094 661.375 826.582031 662.652344 825.125 " fill-opacity="1" fill-rule="nonzero"/><g clip-path="url(#cdf188097f)"><path stroke-linecap="round" transform="matrix(0.231618, 0, 0, -0.231891, 153.833803, 1401.150362)" fill="none" stroke-linejoin="round" d="M 2196.801741 2484.031515 C 2359.262894 2671.450934 2525.586147 2870.005013 2694.692135 3080.586547 C 2761.207944 3163.212131 2758.509534 3294.38551 2683.831034 3367.779938 C 2609.30432 3441.376508 2493.559392 3428.995305 2429.876914 3346.218114 C 2267.112189 3134.895392 2106.877225 2935.785422 1950.234518 2747.978564 C 1942.375399 2738.477886 1935.696834 2728.404471 1930.148228 2717.775165 C 1818.940002 2708.594545 1707.731776 2699.46446 1596.489819 2690.28384 C 1589.490818 2699.46446 1581.412453 2707.937583 1572.220994 2715.484222 C 1389.724145 2866.332765 1192.183661 3005.238079 980.86442 3130.785169 C 897.702794 3180.090997 784.065999 3155.126447 731.059105 3080.906606 C 677.816101 3006.568848 703.282346 2910.13022 783.711832 2859.931598 C 989.415007 2732.6663 1180.934664 2592.278611 1357.309494 2440.554118 C 1366.011867 2433.058015 1375.203326 2426.690539 1384.765817 2421.367464 C 1391.326326 2412.203688 1398.713224 2403.915862 1406.757859 2396.48714 C 1402.777704 2201.487393 1392.810452 2007.515201 1376.451341 1814.654791 C 1376.872967 1792.671837 1380.077329 1771.329 1385.54161 1750.862113 C 1341.523795 1505.562672 1290.001027 1264.306074 1231.411798 1027.041782 C 1208.711423 933.06255 1256.911773 825.556643 1338.639869 784.858699 C 1420.3511 744.228137 1511.489901 789.390052 1542.454157 887.900636 C 1611.061234 1110.155876 1673.158396 1336.689792 1729.133541 1567.030716 C 1762.037279 1564.891379 1794.890422 1562.667816 1827.777295 1560.511634 C 1846.48065 1322.000799 1850.190964 1080.744201 1838.166174 838.291595 C 1833.443956 731.57741 1899.015322 651.562829 1990.71067 661.063507 C 2082.271098 670.395734 2169.61526 769.546435 2179.734297 881.027804 C 2204.289829 1160.084976 2209.096372 1438.485185 2194.879124 1714.03856 C 2203.15987 1736.644785 2208.944587 1760.834456 2211.710457 1786.186445 C 2206.600343 2005.392709 2190.038851 2223.285049 2162.531933 2439.105433 C 2168.873197 2447.662782 2174.489263 2457.045545 2179.447591 2467.034733 C 2185.468419 2472.189357 2191.286866 2477.748265 2196.801741 2484.031515 Z M 2196.801741 2484.031515 " stroke="#231f20" stroke-width="30" stroke-opacity="1" stroke-miterlimit="10"/></g><g clip-path="url(#68a8874b42)"><g clip-path="url(#574915b196)"><g clip-path="url(#045e82c573)"><path fill="#004aad" d="M 954.890625 459.785156 L 810.042969 604.632812 L 783.679688 578.265625 L 928.523438 433.417969 Z M 954.890625 459.785156 " fill-opacity="1" fill-rule="evenodd"/></g></g></g><g clip-path="url(#13b5545167)"><g clip-path="url(#e05c849ca8)"><g clip-path="url(#535d463db2)"><path fill="#004aad" d="M 941.707031 446.601562 L 915.371094 472.9375 L 878.578125 436.144531 L 904.914062 409.808594 Z M 941.707031 446.601562 " fill-opacity="1" fill-rule="evenodd"/></g></g></g><g clip-path="url(#74de035a8f)"><g clip-path="url(#17a5dd17a7)"><g clip-path="url(#c3d3fbbf06)"><path fill="#004aad" d="M 902.203125 486.105469 L 875.867188 512.441406 L 839.074219 475.648438 L 865.410156 449.3125 Z M 902.203125 486.105469 " fill-opacity="1" fill-rule="evenodd"/></g></g></g><g clip-path="url(#4f77da1abd)"><g clip-path="url(#ef7d3092fc)"><g clip-path="url(#6eebd8369b)"><path fill="#004aad" d="M 785.261719 645.691406 C 796.171875 634.78125 796.160156 617.085938 785.238281 606.164062 C 774.320312 595.246094 756.621094 595.234375 745.714844 606.144531 C 734.804688 617.050781 734.816406 634.75 745.734375 645.667969 C 756.65625 656.589844 774.351562 656.597656 785.261719 645.691406 Z M 811.574219 579.828125 C 837.058594 605.3125 837.082031 646.601562 811.625 672.054688 C 786.171875 697.511719 744.882812 697.488281 719.398438 672.003906 C 693.917969 646.523438 693.894531 605.230469 719.347656 579.777344 C 744.804688 554.324219 786.09375 554.347656 811.574219 579.828125 Z M 811.574219 579.828125 " fill-opacity="1" fill-rule="evenodd"/></g></g></g></svg>